<?xml version="1.0" encoding="utf-8"?>
<!-- Generator: Adobe Illustrator 17.0.0, SVG Export Plug-In . SVG Version: 6.00 Build 0)  -->
<!DOCTYPE svg PUBLIC "-//W3C//DTD SVG 1.1//EN" "http://www.w3.org/Graphics/SVG/1.1/DTD/svg11.dtd">
<svg version="1.1" id="图层_1" xmlns="http://www.w3.org/2000/svg" xmlns:xlink="http://www.w3.org/1999/xlink" x="0px" y="0px"
	 width="164.992px" height="91.874px" viewBox="0 0 164.992 91.874" enable-background="new 0 0 164.992 91.874"
	 xml:space="preserve">
<path fill-rule="evenodd" clip-rule="evenodd" d="M13.472,56.328c0,0-8.105,26.823,9.726,26.823c0,0,12.158,17.882,29.179,2.438
	c0,0,6.484-8.128,12.158,0c0,0,9.726,8.941,21.884,0l38.906-24.385c0,0,8.916,12.192,21.884-2.438c0,0,15.4-5.69,4.863-17.069
	c0,0,7.295-8.941-7.295-17.069c0,0-4.863-9.754-17.021-2.438c0,0-9.726-13.005-21.884-12.192c0,0-12.968-15.444-31.611,0
	c0,0-12.158-10.567-24.316-4.877c0,0-12.158-13.005-24.316,2.438c0,0-25.126,0.813-17.021,29.262L13.472,56.328z"/>
</svg>
